<svg xmlns="http://www.w3.org/2000/svg" xmlns:xlink="http://www.w3.org/1999/xlink" width="132" zoomAndPan="magnify" viewBox="0 0 98.88 98.999996" height="132" preserveAspectRatio="xMidYMid meet" version="1.0"><defs><g/><clipPath id="c85bb0173e"><path d="M 1.066406 0.0585938 L 97.8125 0.0585938 L 97.8125 98.9375 L 1.066406 98.9375 Z M 1.066406 0.0585938 " clip-rule="nonzero"/></clipPath><clipPath id="a5d86fd5f5"><path d="M 49.441406 0.0585938 C 22.722656 0.0585938 1.066406 22.195312 1.066406 49.5 C 1.066406 76.804688 22.722656 98.941406 49.441406 98.941406 C 76.15625 98.941406 97.8125 76.804688 97.8125 49.5 C 97.8125 22.195312 76.15625 0.0585938 49.441406 0.0585938 Z M 49.441406 0.0585938 " clip-rule="nonzero"/></clipPath></defs><g clip-path="url(#c85bb0173e)"><g clip-path="url(#a5d86fd5f5)"><path fill="#0d0d0d" d="M 1.066406 0.0585938 L 97.8125 0.0585938 L 97.8125 99.074219 L 1.066406 99.074219 Z M 1.066406 0.0585938 " fill-opacity="1" fill-rule="nonzero"/></g></g><g fill="#ffffff" fill-opacity="1"><g transform="translate(24.060852, 63.047415)"><g><path d="M 1.34375 -3.53125 C 1.925781 -3.132812 2.671875 -2.789062 3.578125 -2.5 C 4.492188 -2.207031 5.523438 -2.0625 6.671875 -2.0625 C 8.097656 -2.0625 9.238281 -2.316406 10.09375 -2.828125 C 10.957031 -3.347656 11.613281 -4.109375 12.0625 -5.109375 C 12.507812 -6.117188 12.796875 -7.359375 12.921875 -8.828125 C 13.054688 -10.296875 13.125 -11.96875 13.125 -13.84375 L 13.125 -28.171875 L 15.90625 -28.171875 L 15.90625 -13.84375 C 15.90625 -11.695312 15.804688 -9.742188 15.609375 -7.984375 C 15.410156 -6.234375 14.992188 -4.734375 14.359375 -3.484375 C 13.722656 -2.242188 12.796875 -1.28125 11.578125 -0.59375 C 10.367188 0.09375 8.734375 0.4375 6.671875 0.4375 C 4.285156 0.4375 2.25 -0.144531 0.5625 -1.3125 Z M 1.34375 -3.53125 "/></g></g></g><g fill="#ffffff" fill-opacity="1"><g transform="translate(40.010865, 63.047415)"><g><path d="M 28.484375 0 L 28.484375 -23.125 L 18.203125 -5.234375 L 16.578125 -5.234375 L 6.3125 -23.125 L 6.3125 0 L 3.53125 0 L 3.53125 -28.171875 L 6.390625 -28.171875 L 17.375 -8.890625 L 28.4375 -28.171875 L 31.265625 -28.171875 L 31.265625 0 Z M 28.484375 0 "/></g></g></g><g fill="#ffffff" fill-opacity="1"><g transform="translate(24.060852, 63.047415)"><g><path d="M 1.34375 -3.53125 C 1.925781 -3.132812 2.671875 -2.789062 3.578125 -2.5 C 4.492188 -2.207031 5.523438 -2.0625 6.671875 -2.0625 C 8.097656 -2.0625 9.238281 -2.316406 10.09375 -2.828125 C 10.957031 -3.347656 11.613281 -4.109375 12.0625 -5.109375 C 12.507812 -6.117188 12.796875 -7.359375 12.921875 -8.828125 C 13.054688 -10.296875 13.125 -11.96875 13.125 -13.84375 L 13.125 -28.171875 L 15.90625 -28.171875 L 15.90625 -13.84375 C 15.90625 -11.695312 15.804688 -9.742188 15.609375 -7.984375 C 15.410156 -6.234375 14.992188 -4.734375 14.359375 -3.484375 C 13.722656 -2.242188 12.796875 -1.28125 11.578125 -0.59375 C 10.367188 0.09375 8.734375 0.4375 6.671875 0.4375 C 4.285156 0.4375 2.25 -0.144531 0.5625 -1.3125 Z M 1.34375 -3.53125 "/></g></g></g><g fill="#ffffff" fill-opacity="1"><g transform="translate(40.010865, 63.047415)"><g><path d="M 28.484375 0 L 28.484375 -23.125 L 18.203125 -5.234375 L 16.578125 -5.234375 L 6.3125 -23.125 L 6.3125 0 L 3.53125 0 L 3.53125 -28.171875 L 6.390625 -28.171875 L 17.375 -8.890625 L 28.4375 -28.171875 L 31.265625 -28.171875 L 31.265625 0 Z M 28.484375 0 "/></g></g></g><g fill="#8500bb" fill-opacity="1"><g transform="translate(8.088195, 77.692677)"><g><path d="M 11.671875 -51.78125 L 11.671875 -32 C 11.671875 -31.382812 11.53125 -30.625 11.25 -29.71875 C 10.976562 -28.8125 10.4375 -28.003906 9.625 -27.296875 C 10.4375 -26.585938 10.976562 -25.765625 11.25 -24.828125 C 11.53125 -23.890625 11.671875 -23.144531 11.671875 -22.59375 L 11.671875 -1.96875 L 15.84375 -1.96875 L 15.84375 2.34375 L 8.71875 2.34375 C 8.3125 2.34375 7.914062 2.175781 7.53125 1.84375 C 7.15625 1.519531 6.96875 0.929688 6.96875 0.078125 L 6.96875 -21.234375 C 6.96875 -22.242188 6.710938 -23.164062 6.203125 -24 C 5.703125 -24.832031 4.972656 -25.296875 4.015625 -25.390625 L 4.015625 -29.34375 C 4.523438 -29.34375 4.96875 -29.492188 5.34375 -29.796875 C 5.71875 -30.097656 6.03125 -30.453125 6.28125 -30.859375 C 6.539062 -31.265625 6.71875 -31.707031 6.8125 -32.1875 C 6.914062 -32.664062 6.96875 -33.054688 6.96875 -33.359375 L 6.96875 -53.828125 C 6.96875 -54.785156 7.195312 -55.398438 7.65625 -55.671875 C 8.113281 -55.953125 8.46875 -56.09375 8.71875 -56.09375 L 15.84375 -56.09375 L 15.84375 -51.78125 Z M 11.671875 -51.78125 "/></g></g></g><g fill="#262626" fill-opacity="1"><g transform="translate(9.562351, 76.218521)"><g><path d="M 11.671875 -51.78125 L 11.671875 -32 C 11.671875 -31.382812 11.53125 -30.625 11.25 -29.71875 C 10.976562 -28.8125 10.4375 -28.003906 9.625 -27.296875 C 10.4375 -26.585938 10.976562 -25.765625 11.25 -24.828125 C 11.53125 -23.890625 11.671875 -23.144531 11.671875 -22.59375 L 11.671875 -1.96875 L 15.84375 -1.96875 L 15.84375 2.34375 L 8.71875 2.34375 C 8.3125 2.34375 7.914062 2.175781 7.53125 1.84375 C 7.15625 1.519531 6.96875 0.929688 6.96875 0.078125 L 6.96875 -21.234375 C 6.96875 -22.242188 6.710938 -23.164062 6.203125 -24 C 5.703125 -24.832031 4.972656 -25.296875 4.015625 -25.390625 L 4.015625 -29.34375 C 4.523438 -29.34375 4.96875 -29.492188 5.34375 -29.796875 C 5.71875 -30.097656 6.03125 -30.453125 6.28125 -30.859375 C 6.539062 -31.265625 6.71875 -31.707031 6.8125 -32.1875 C 6.914062 -32.664062 6.96875 -33.054688 6.96875 -33.359375 L 6.96875 -53.828125 C 6.96875 -54.785156 7.195312 -55.398438 7.65625 -55.671875 C 8.113281 -55.953125 8.46875 -56.09375 8.71875 -56.09375 L 15.84375 -56.09375 L 15.84375 -51.78125 Z M 11.671875 -51.78125 "/></g></g></g><path stroke-linecap="butt" transform="matrix(0.752635, 0, 0, 0.752635, 9.562351, -3.560738)" fill="none" stroke-linejoin="miter" d="M 15.518604 37.19512 L 15.518604 63.482988 C 15.518604 64.303024 15.32657 65.320284 14.952882 66.534768 C 14.589575 67.728491 13.868151 68.797652 12.78861 69.73187 C 13.868151 70.681659 14.589575 71.776771 14.952882 73.027585 C 15.32657 74.252449 15.518604 75.238569 15.518604 75.975563 L 15.518604 103.394873 L 21.051252 103.394873 L 21.051252 109.124745 L 11.579316 109.124745 C 11.039545 109.124745 10.515345 108.901571 10.006715 108.460412 C 9.518846 108.034824 9.269721 107.245928 9.269721 106.098916 L 9.269721 77.797289 C 9.269721 76.453053 8.932364 75.228189 8.262841 74.133077 C 7.588128 73.017205 6.612388 72.394393 5.335623 72.26464 L 5.335623 67.022637 C 6.010337 67.022637 6.591628 66.830603 7.079498 66.436156 C 7.588128 66.026138 8.008526 65.548648 8.335502 65.008878 C 8.678049 64.469107 8.916794 63.877435 9.046546 63.239053 C 9.197059 62.60067 9.269721 62.08166 9.269721 61.687212 L 9.269721 34.491077 C 9.269721 33.214312 9.575937 32.394276 10.177989 32.036159 C 10.78523 31.657282 11.25234 31.470438 11.579316 31.470438 L 21.051252 31.470438 L 21.051252 37.19512 Z M 15.518604 37.19512 " stroke="#acfdfb" stroke-width="1.384982" stroke-opacity="1" stroke-miterlimit="4"/><g fill="#262626" fill-opacity="1"><g transform="translate(9.562351, 76.218521)"><g><path d="M 11.671875 -51.78125 L 11.671875 -32 C 11.671875 -31.382812 11.53125 -30.625 11.25 -29.71875 C 10.976562 -28.8125 10.4375 -28.003906 9.625 -27.296875 C 10.4375 -26.585938 10.976562 -25.765625 11.25 -24.828125 C 11.53125 -23.890625 11.671875 -23.144531 11.671875 -22.59375 L 11.671875 -1.96875 L 15.84375 -1.96875 L 15.84375 2.34375 L 8.71875 2.34375 C 8.3125 2.34375 7.914062 2.175781 7.53125 1.84375 C 7.15625 1.519531 6.96875 0.929688 6.96875 0.078125 L 6.96875 -21.234375 C 6.96875 -22.242188 6.710938 -23.164062 6.203125 -24 C 5.703125 -24.832031 4.972656 -25.296875 4.015625 -25.390625 L 4.015625 -29.34375 C 4.523438 -29.34375 4.96875 -29.492188 5.34375 -29.796875 C 5.71875 -30.097656 6.03125 -30.453125 6.28125 -30.859375 C 6.539062 -31.265625 6.71875 -31.707031 6.8125 -32.1875 C 6.914062 -32.664062 6.96875 -33.054688 6.96875 -33.359375 L 6.96875 -53.828125 C 6.96875 -54.785156 7.195312 -55.398438 7.65625 -55.671875 C 8.113281 -55.953125 8.46875 -56.09375 8.71875 -56.09375 L 15.84375 -56.09375 L 15.84375 -51.78125 Z M 11.671875 -51.78125 "/></g></g></g><g fill="#8500bb" fill-opacity="1"><g transform="translate(72.660322, 77.692677)"><g><path d="M 3.796875 -51.78125 L 3.796875 -56.09375 L 10.921875 -56.09375 C 11.171875 -56.09375 11.519531 -55.953125 11.96875 -55.671875 C 12.425781 -55.398438 12.65625 -54.785156 12.65625 -53.828125 L 12.65625 -33.359375 C 12.65625 -33.054688 12.707031 -32.664062 12.8125 -32.1875 C 12.914062 -31.707031 13.078125 -31.265625 13.296875 -30.859375 C 13.523438 -30.453125 13.816406 -30.097656 14.171875 -29.796875 C 14.523438 -29.492188 14.984375 -29.34375 15.546875 -29.34375 L 15.546875 -25.390625 C 14.578125 -25.296875 13.851562 -24.832031 13.375 -24 C 12.894531 -23.164062 12.65625 -22.242188 12.65625 -21.234375 L 12.65625 0.078125 C 12.65625 0.929688 12.46875 1.519531 12.09375 1.84375 C 11.71875 2.175781 11.328125 2.34375 10.921875 2.34375 L 3.796875 2.34375 L 3.796875 -1.96875 L 7.953125 -1.96875 L 7.953125 -22.59375 C 7.953125 -23.144531 8.078125 -23.890625 8.328125 -24.828125 C 8.585938 -25.765625 9.125 -26.585938 9.9375 -27.296875 C 9.125 -28.003906 8.585938 -28.8125 8.328125 -29.71875 C 8.078125 -30.625 7.953125 -31.382812 7.953125 -32 L 7.953125 -51.78125 Z M 3.796875 -51.78125 "/></g></g></g><g fill="#262626" fill-opacity="1"><g transform="translate(71.186164, 76.218521)"><g><path d="M 3.796875 -51.78125 L 3.796875 -56.09375 L 10.921875 -56.09375 C 11.171875 -56.09375 11.519531 -55.953125 11.96875 -55.671875 C 12.425781 -55.398438 12.65625 -54.785156 12.65625 -53.828125 L 12.65625 -33.359375 C 12.65625 -33.054688 12.707031 -32.664062 12.8125 -32.1875 C 12.914062 -31.707031 13.078125 -31.265625 13.296875 -30.859375 C 13.523438 -30.453125 13.816406 -30.097656 14.171875 -29.796875 C 14.523438 -29.492188 14.984375 -29.34375 15.546875 -29.34375 L 15.546875 -25.390625 C 14.578125 -25.296875 13.851562 -24.832031 13.375 -24 C 12.894531 -23.164062 12.65625 -22.242188 12.65625 -21.234375 L 12.65625 0.078125 C 12.65625 0.929688 12.46875 1.519531 12.09375 1.84375 C 11.71875 2.175781 11.328125 2.34375 10.921875 2.34375 L 3.796875 2.34375 L 3.796875 -1.96875 L 7.953125 -1.96875 L 7.953125 -22.59375 C 7.953125 -23.144531 8.078125 -23.890625 8.328125 -24.828125 C 8.585938 -25.765625 9.125 -26.585938 9.9375 -27.296875 C 9.125 -28.003906 8.585938 -28.8125 8.328125 -29.71875 C 8.078125 -30.625 7.953125 -31.382812 7.953125 -32 L 7.953125 -51.78125 Z M 3.796875 -51.78125 "/></g></g></g><path stroke-linecap="butt" transform="matrix(0.752635, 0, 0, 0.752635, 71.186164, -3.560738)" fill="none" stroke-linejoin="miter" d="M 5.041365 37.19512 L 5.041365 31.470438 L 14.508111 31.470438 C 14.835087 31.470438 15.302197 31.657282 15.909438 32.036159 C 16.51668 32.394276 16.817706 33.214312 16.817706 34.491077 L 16.817706 61.687212 C 16.817706 62.08166 16.885178 62.60067 17.01493 63.239053 C 17.149873 63.877435 17.362667 64.469107 17.653313 65.008878 C 17.964719 65.548648 18.359167 66.026138 18.836656 66.436156 C 19.308955 66.830603 19.916197 67.022637 20.653192 67.022637 L 20.653192 72.26464 C 19.376427 72.394393 18.416258 73.017205 17.777875 74.133077 C 17.139493 75.228189 16.817706 76.453053 16.817706 77.797289 L 16.817706 106.098916 C 16.817706 107.245928 16.563391 108.034824 16.054761 108.460412 C 15.566892 108.901571 15.047882 109.124745 14.508111 109.124745 L 5.041365 109.124745 L 5.041365 103.394873 L 10.574014 103.394873 L 10.574014 75.975563 C 10.574014 75.238569 10.740097 74.252449 11.067073 73.027585 C 11.40962 71.776771 12.120664 70.681659 13.205395 69.73187 C 12.120664 68.797652 11.40962 67.728491 11.067073 66.534768 C 10.740097 65.320284 10.574014 64.303024 10.574014 63.482988 L 10.574014 37.19512 Z M 5.041365 37.19512 " stroke="#acfdfb" stroke-width="1.384982" stroke-opacity="1" stroke-miterlimit="4"/><g fill="#262626" fill-opacity="1"><g transform="translate(71.186164, 76.218521)"><g><path d="M 3.796875 -51.78125 L 3.796875 -56.09375 L 10.921875 -56.09375 C 11.171875 -56.09375 11.519531 -55.953125 11.96875 -55.671875 C 12.425781 -55.398438 12.65625 -54.785156 12.65625 -53.828125 L 12.65625 -33.359375 C 12.65625 -33.054688 12.707031 -32.664062 12.8125 -32.1875 C 12.914062 -31.707031 13.078125 -31.265625 13.296875 -30.859375 C 13.523438 -30.453125 13.816406 -30.097656 14.171875 -29.796875 C 14.523438 -29.492188 14.984375 -29.34375 15.546875 -29.34375 L 15.546875 -25.390625 C 14.578125 -25.296875 13.851562 -24.832031 13.375 -24 C 12.894531 -23.164062 12.65625 -22.242188 12.65625 -21.234375 L 12.65625 0.078125 C 12.65625 0.929688 12.46875 1.519531 12.09375 1.84375 C 11.71875 2.175781 11.328125 2.34375 10.921875 2.34375 L 3.796875 2.34375 L 3.796875 -1.96875 L 7.953125 -1.96875 L 7.953125 -22.59375 C 7.953125 -23.144531 8.078125 -23.890625 8.328125 -24.828125 C 8.585938 -25.765625 9.125 -26.585938 9.9375 -27.296875 C 9.125 -28.003906 8.585938 -28.8125 8.328125 -29.71875 C 8.078125 -30.625 7.953125 -31.382812 7.953125 -32 L 7.953125 -51.78125 Z M 3.796875 -51.78125 "/></g></g></g></svg>